<?xml version="1.0" encoding="UTF-8"?>
<!-- Created with Inkscape (http://www.inkscape.org/) -->
<svg id="svg8" width="233.064" height="48.4559" version="1.1" viewBox="0 0 61.665 12.8206" xmlns="http://www.w3.org/2000/svg" xmlns:cc="http://creativecommons.org/ns#" xmlns:dc="http://purl.org/dc/elements/1.1/" xmlns:rdf="http://www.w3.org/1999/02/22-rdf-syntax-ns#">
 <metadata id="metadata5">
  <rdf:RDF>
   <cc:Work rdf:about="">
    <dc:format>image/svg+xml</dc:format>
    <dc:type rdf:resource="http://purl.org/dc/dcmitype/StillImage"/>
   </cc:Work>
  </rdf:RDF>
 </metadata>
 <g id="layer1" transform="translate(-32.3529 -45.6284)">
  <g id="g663" transform="matrix(.530657 0 0 .530657 -34.5582 10.5843)">
   <g id="g324" transform="matrix(.264583 0 0 .264583 125.879 65.8283)">
    <path id="path316" class="st18" d="m237.2 44.4c10.6 0 17.8 8.2 17.8 20.4v22.7c0 0.3-0.3 0.6-0.6 0.6h-10.4c-0.3 0-0.6-0.3-0.6-0.6v-22.6c0-4.7-2.3-9.8-8.8-9.8h-0.2c-4.9 0.1-9.1 4.5-9.1 9.5v22.9c0 0.3-0.3 0.6-0.6 0.6h-10.3c-0.3 0-0.6-0.3-0.6-0.6v-42c0-0.3 0.3-0.6 0.6-0.6h10c0.3 0 0.6 0.3 0.6 0.6v3.7c3.8-3.3 7.7-4.8 12.2-4.8m158.5 36.1c-0.2 0.2-0.1 0.6 0.1 0.8 6.2 6.2 12.9 7 18.7 7 8.2 0 14.3-3.1 16.9-8.6 0.8-1.7 1.2-3.5 1.2-5.4 0-11.1-9.6-13.1-17.9-13.6-6.6-0.4-6.6-2.7-6.6-3.5 0-2.8 4.5-3.1 6.4-3.1 3.7 0 6.5 0.9 8.8 2.9 0.2 0.2 0.6 0.2 0.8-0.1l5.9-6.8c0.2-0.2 0.2-0.6-0.1-0.8-4.3-3.6-8.9-5.1-15.6-5.1-4.3 0-8.5 1.1-11.6 2.9-4 2.4-6.1 6-6.1 10.4 0 7.7 6.1 12.4 17.3 13.2 6.3 0.4 7.1 2.2 7.1 3.8 0 2.3-3.1 3.5-6.1 3.5h-0.3c-4.9-0.1-9.6-1.9-12.7-4.8-0.3-0.2-0.7-0.2-0.9 0.1zm-104.5-7.1c1.7-2 2.5-4.8 2.5-7.8 0-5.4-3.3-11.1-11.3-11.1-6.6 0-11 4.5-11 11.2s4.4 11.3 11 11.3c3.4 0 6.8-1.3 8.8-3.6m2.2-28c0-0.3 0.3-0.6 0.6-0.6h10.3c0.3 0 0.6 0.3 0.6 0.6v42.1c0 0.3-0.3 0.6-0.6 0.6h-10.3c-0.3 0-0.6-0.3-0.6-0.6v-3.2c-3.6 3.3-7.9 3.4-11.6 3.5h-0.6c-6.2 0-11.4-1.9-15.2-5.6-4-3.9-6-9.6-6-16.4 0-13.2 8.4-21.7 21.5-21.7h0.2c4.1 0 8.4 0.4 11.8 3.2zm-128.1-11v-10.1c0-0.4-0.3-0.7-0.7-0.7h-37.5c-0.4 0-0.7 0.3-0.7 0.7v63c0 0.4 0.3 0.7 0.7 0.7h10.1c0.4 0 0.7-0.3 0.7-0.7v-25.7c0-0.4 0.3-0.7 0.7-0.7h18.9c0.4 0 0.7-0.3 0.7-0.7v-10.2c0-0.4-0.3-0.7-0.7-0.7h-18.9c-0.4 0-0.7-0.3-0.7-0.7v-12.7c0-0.4 0.3-0.7 0.7-0.7h25.9c0.5 0 0.8-0.4 0.8-0.8m220.5 40.2c-0.2-0.2-0.6-0.2-0.8 0-2 1.7-4.6 2.6-7.1 2.6-6.3 0-10.7-4.5-10.7-11s4.4-11 10.7-11c2.5 0 5 0.9 7.1 2.6 0.2 0.2 0.6 0.2 0.8 0l6.7-7c0.2-0.2 0.2-0.6 0-0.8-4.3-4.1-8.7-5.8-14.7-5.8-13.5 0-22.2 8.7-22.2 22.2s8.7 22.2 22.2 22.2c6 0 10.4-1.7 14.7-5.8 0.2-0.2 0.2-0.6 0-0.8zm-53.8 13.5c0.3 0 0.6-0.3 0.6-0.6v-9.4c0-0.3-0.3-0.6-0.6-0.6h-5.1c-3-0.1-4.4-1.6-4.4-4.8v-16.1h9.5c0.3 0 0.6-0.3 0.6-0.6v-10.5c0-0.3-0.3-0.6-0.6-0.6h-9.4v-9.1c0-0.3-0.3-0.6-0.6-0.6h-10.4c-0.3 0-0.6 0.3-0.6 0.6v36.9c0 9.8 5.5 15.4 15.2 15.4h1.9zm-138.2-14.7c1.7-2 2.5-4.8 2.5-7.8 0-5.4-3.3-11.1-11.3-11.1-6.6 0-11 4.5-11 11.2s4.4 11.3 11 11.3c3.5 0 6.9-1.3 8.8-3.6m2.3-28c0-0.3 0.3-0.6 0.6-0.6h10.3c0.3 0 0.6 0.3 0.6 0.6v42.1c0 0.3-0.3 0.6-0.6 0.6h-10.3c-0.3 0-0.6-0.3-0.6-0.6v-3.2c-3.6 3.3-7.9 3.4-11.6 3.5h-0.6c-6.2 0-11.4-1.9-15.2-5.6-4-3.9-6-9.6-6-16.4-0.1-13.2 8.3-21.8 21.3-21.8h0.2c4.1 0 8.4 0.4 11.8 3.2zm142.7 42.7h10.4c0.3 0 0.6-0.3 0.6-0.6v-42.1c0-0.3-0.3-0.6-0.6-0.6h-10.4c-0.3 0-0.6 0.3-0.6 0.6v42.1c0.1 0.3 0.3 0.6 0.6 0.6m11.8-56c0-8.5-12.8-8.5-12.8 0-0.1 8.4 12.8 8.4 12.8 0" fill="#09203f"/>
    <path id="path318" class="st23" d="m108.8 11.4-10.8 16.8c-0.2 0.3-0.7 0.5-1 0.3-24.9-12.5-53.7 10.5-79.1 5-0.2-0.1-0.4-0.2-0.6-0.4 0.1 0-12.2-18.8-16.3-25.1-0.5-0.8 0.1-1.9 1.2-1.8 2.2 0.5 11.8 2.6 19.2 3.2 38.5 2.1 59.4-21 87.3 0.9 0.3 0.2 0.4 0.7 0.1 1.1zm-106.8-5.2m-1.2 1.8m1.2-1.8m75.4 53.3c0.2 0.1 0.4 0 0.6-0.2l13-20.3c0.2-0.3 0-0.6-0.3-0.7-18.9-6.5-36.6 6-63.6 6.7-0.7 0-1.4 0.8-0.9 1.7l29.1 45c0.4 0.8 1.4 0.3 1.3-0.4l-6.3-28.5c-0.1-0.3 0.1-0.5 0.3-0.6 2.5-0.7 19-6.3 26.8-2.7z" fill="#e53d2e"/>
    <g id="g322">
     <path id="path320" class="st18" d="m440 40.3c0 2.1-1.3 3.8-3.7 3.8s-3.7-1.7-3.7-3.8 1.3-3.8 3.7-3.8 3.7 1.7 3.7 3.8zm-3.7 3.2c2 0 3.1-1.4 3.1-3.2s-1.1-3.2-3.1-3.2-3.1 1.4-3.1 3.2 1.1 3.2 3.1 3.2zm0.6-2.7c1.5-0.2 1.4-2.5-0.3-2.5h-1.8v3.9h0.6v-1.4h0.8l1.2 1.4h0.7v-0.1zm-0.3-1.9c1 0 1 1.4 0 1.4h-1.2v-1.4z" fill="#09203f"/>
    </g>
   </g>
  </g>
 </g>
 <style id="style10" type="text/css">.st0{fill:#FFFFFF;}
	.st1{fill:#003B75;}
	.st2{fill:#FFFFFF;enable-background:new    ;}
	.st3{fill:#DA2128;}
	.st4{fill:none;stroke:#09203F;}
	.st5{fill:#CA2027;}
	.st6{fill:#2A2B79;}
	.st7{fill:#066CB4;}
	.st8{fill:#EA1D4D;}
	.st9{fill:#CFD2D3;}
	.st10{fill:url(#SVGID_1_);}
	.st11{fill:url(#SVGID_2_);}
	.st12{fill:url(#SVGID_3_);}
	.st13{fill:url(#SVGID_4_);}
	.st14{fill:url(#SVGID_5_);}
	.st15{fill:url(#SVGID_6_);}
	.st16{fill:url(#SVGID_7_);}
	.st17{fill:url(#SVGID_8_);}
	.st18{fill:#09203F;}
	.st19{fill:#333333;}
	.st20{fill:#005CB9;}
	.st21{fill:#EA0029;}
	.st22{fill:#F5CE3E;}
	.st23{fill:#E53D2E;}</style>
</svg>
